<?xml version="1.0" encoding="UTF-8"?>
<svg width="294px" height="94px" viewBox="0 0 294 94" version="1.1" xmlns="http://www.w3.org/2000/svg" xmlns:xlink="http://www.w3.org/1999/xlink">
    <!-- Generator: Sketch 52.6 (67491) - http://www.bohemiancoding.com/sketch -->
    <title>iPhone XS</title>
    <desc>Created with Sketch.</desc>
    <g id="iPhone-XS" stroke="none" stroke-width="1" fill="none" fill-rule="evenodd">
        <g id="360" transform="translate(9.000000, -4.000000)">
            <path d="M125.118533,56.0886187 C125.828536,56.2986198 126.406031,56.6661161 126.851033,57.1911187 C127.296035,57.7161213 127.518533,58.348615 127.518533,59.0886187 C127.518533,60.1686241 127.156036,61.0136157 126.431033,61.6236187 C125.706029,62.2336218 124.818538,62.5386187 123.768533,62.5386187 C122.948529,62.5386187 122.216036,62.3511206 121.571033,61.9761187 C120.92603,61.6011168 120.458534,61.0486224 120.168533,60.3186187 L121.938533,59.2986187 C122.198534,60.1086228 122.808528,60.5136187 123.768533,60.5136187 C124.298536,60.5136187 124.711031,60.38612 125.006033,60.1311187 C125.301034,59.8761174 125.448533,59.5286209 125.448533,59.0886187 C125.448533,58.6586166 125.301034,58.31362 125.006033,58.0536187 C124.711031,57.7936174 124.298536,57.6636187 123.768533,57.6636187 L123.318533,57.6636187 L122.523533,56.4636187 L124.593533,53.7636187 L120.483533,53.7636187 L120.483533,51.8286187 L127.083533,51.8286187 L127.083533,53.5386187 L125.118533,56.0886187 Z M133.773533,55.2336187 C134.863538,55.2636189 135.748529,55.6161153 136.428533,56.2911187 C137.108536,56.9661221 137.448533,57.8286135 137.448533,58.8786187 C137.448533,59.9486241 137.093536,60.8261153 136.383533,61.5111187 C135.673529,62.1961221 134.758538,62.5386187 133.638533,62.5386187 C132.518527,62.5386187 131.606036,62.1986221 130.901033,61.5186187 C130.196029,60.8386153 129.843533,59.9586241 129.843533,58.8786187 C129.843533,58.0786147 130.048531,57.3736218 130.458533,56.7636187 L133.728533,51.8286187 L136.098533,51.8286187 L133.773533,55.2336187 Z M132.393533,60.1236187 C132.723535,60.4336203 133.13853,60.5886187 133.638533,60.5886187 C134.138535,60.5886187 134.556031,60.4336203 134.891033,60.1236187 C135.226035,59.8136172 135.393533,59.3986213 135.393533,58.8786187 C135.393533,58.3686162 135.226035,57.9586203 134.891033,57.6486187 C134.556031,57.3386172 134.138535,57.1836187 133.638533,57.1836187 C133.13853,57.1836187 132.723535,57.3361172 132.393533,57.6411187 C132.063531,57.9461202 131.898533,58.3586161 131.898533,58.8786187 C131.898533,59.3986213 132.063531,59.8136172 132.393533,60.1236187 Z M144.018533,62.5386187 C142.708526,62.5386187 141.681037,62.0411237 140.936033,61.0461187 C140.191029,60.0511137 139.818533,58.728627 139.818533,57.0786187 C139.818533,55.4286105 140.191029,54.1061237 140.936033,53.1111187 C141.681037,52.1161137 142.708526,51.6186187 144.018533,51.6186187 C145.338539,51.6186187 146.368529,52.1161137 147.108533,53.1111187 C147.848537,54.1061237 148.218533,55.4286105 148.218533,57.0786187 C148.218533,58.728627 147.848537,60.0511137 147.108533,61.0461187 C146.368529,62.0411237 145.338539,62.5386187 144.018533,62.5386187 Z M142.428533,59.6436187 C142.788535,60.2236216 143.318529,60.5136187 144.018533,60.5136187 C144.718536,60.5136187 145.251031,60.2186217 145.616033,59.6286187 C145.981035,59.0386158 146.163533,58.1886243 146.163533,57.0786187 C146.163533,55.9586131 145.981035,55.1036217 145.616033,54.5136187 C145.251031,53.9236158 144.718536,53.6286187 144.018533,53.6286187 C143.318529,53.6286187 142.788535,53.9236158 142.428533,54.5136187 C142.068531,55.1036217 141.888533,55.9586131 141.888533,57.0786187 C141.888533,58.1986243 142.068531,59.0536158 142.428533,59.6436187 Z" fill="#2468EB"></path>
            <path d="M155.673533,52.7086187 C155.160197,53.2152879 154.533537,53.4686187 153.793533,53.4686187 C153.053529,53.4686187 152.428535,53.2136213 151.918533,52.7036187 C151.40853,52.1936162 151.153533,51.5686224 151.153533,50.8286187 C151.153533,50.088615 151.40853,49.4636213 151.918533,48.9536187 C152.428535,48.4436162 153.053529,48.1886187 153.793533,48.1886187 C154.533537,48.1886187 155.160197,48.4436162 155.673533,48.9536187 C156.186869,49.4636213 156.443533,50.088615 156.443533,50.8286187 C156.443533,51.5686224 156.186869,52.1952828 155.673533,52.7086187 Z M152.823533,51.8186187 C153.083534,52.07862 153.406864,52.2086187 153.793533,52.2086187 C154.180201,52.2086187 154.503532,52.07862 154.763533,51.8186187 C155.023534,51.5586174 155.153533,51.2286207 155.153533,50.8286187 C155.153533,50.4286167 155.023534,50.09862 154.763533,49.8386187 C154.503532,49.5786174 154.180201,49.4486187 153.793533,49.4486187 C153.406864,49.4486187 153.085201,49.5786174 152.828533,49.8386187 C152.571865,50.09862 152.443533,50.4286167 152.443533,50.8286187 C152.443533,51.2286207 152.570198,51.5586174 152.823533,51.8186187 Z" id="о" fill="#2468EB"></path>
            <path id="Path-2" d="M7.19958548,36.0147106 C45.6101175,70.5097262 89.2057341,85.9907092 138.015199,82.4726956 C186.855401,78.9524666 229.05939,57.8855404 264.648447,19.2555044 C263.148198,17.5629055 263.128851,14.9765779 264.680203,13.2586187 C266.345845,11.4140965 269.191394,11.2690849 271.035917,12.9347263 C272.880439,14.6003677 273.02545,17.4459176 271.359809,19.2904398 C269.806423,21.0106515 267.226807,21.2527084 265.39,19.9264591 C229.630486,58.7443226 187.189089,79.9310097 138.087089,83.4701082 C88.9994042,87.0081749 45.1355031,71.4305254 6.52415504,36.7521985 C4.81956627,38.2448011 2.22843837,38.2453716 0.520751958,36.6780479 C-1.31024464,34.9975495 -1.43224752,32.1509203 0.248250903,30.3199237 C1.92874933,28.4889271 4.77537849,28.3669243 6.60637509,30.0474227 C8.31164608,31.6125295 8.53456215,34.1891202 7.19958548,36.0147106 Z M6.22691875,35.6336047 C7.44433934,34.2076353 7.32276391,32.0622662 5.93019474,30.7841588 C4.50608627,29.4771045 2.29204137,29.5719956 0.984987041,30.9961041 C-0.322067289,32.4202126 -0.227176162,34.6342575 1.19693231,35.9413118 C2.58950633,37.2194236 4.73742054,37.15699 6.05399684,35.8220138 C6.07301565,35.7859034 6.09679681,35.7515528 6.12538643,35.7198571 C6.15600187,35.6859155 6.19021231,35.6571458 6.22691875,35.6336047 Z" fill="#B7C6E3" fill-rule="nonzero"></path>
        </g>
    </g>
</svg>