<?xml version="1.0" encoding="UTF-8"?>
<svg width="305px" height="118px" viewBox="0 0 305 118" version="1.1" xmlns="http://www.w3.org/2000/svg" xmlns:xlink="http://www.w3.org/1999/xlink">
    <!-- Generator: Sketch 52.6 (67491) - http://www.bohemiancoding.com/sketch -->
    <title>iPhone XS</title>
    <desc>Created with Sketch.</desc>
    <g id="iPhone-XS" stroke="none" stroke-width="1" fill="none" fill-rule="evenodd">
        <g id="360" transform="translate(1.000000, 13.000000)">
            <path d="M128.270833,55.5069987 C128.980836,55.7169997 129.558331,56.084496 130.003333,56.6094987 C130.448335,57.1345013 130.670833,57.766995 130.670833,58.5069987 C130.670833,59.5870041 130.308336,60.4319956 129.583333,61.0419987 C128.858329,61.6520017 127.970838,61.9569987 126.920833,61.9569987 C126.100829,61.9569987 125.368336,61.7695005 124.723333,61.3944987 C124.07833,61.0194968 123.610834,60.4670023 123.320833,59.7369987 L125.090833,58.7169987 C125.350834,59.5270027 125.960828,59.9319987 126.920833,59.9319987 C127.450836,59.9319987 127.863331,59.8044999 128.158333,59.5494987 C128.453334,59.2944974 128.600833,58.9470009 128.600833,58.5069987 C128.600833,58.0769965 128.453334,57.732 128.158333,57.4719987 C127.863331,57.2119974 127.450836,57.0819987 126.920833,57.0819987 L126.470833,57.0819987 L125.675833,55.8819987 L127.745833,53.1819987 L123.635833,53.1819987 L123.635833,51.2469987 L130.235833,51.2469987 L130.235833,52.9569987 L128.270833,55.5069987 Z M136.925833,54.6519987 C138.015838,54.6819988 138.900829,55.0344953 139.580833,55.7094987 C140.260836,56.384502 140.600833,57.2469934 140.600833,58.2969987 C140.600833,59.367004 140.245836,60.2444952 139.535833,60.9294987 C138.825829,61.6145021 137.910838,61.9569987 136.790833,61.9569987 C135.670827,61.9569987 134.758336,61.6170021 134.053333,60.9369987 C133.348329,60.2569953 132.995833,59.3770041 132.995833,58.2969987 C132.995833,57.4969947 133.200831,56.7920017 133.610833,56.1819987 L136.880833,51.2469987 L139.250833,51.2469987 L136.925833,54.6519987 Z M135.545833,59.5419987 C135.875835,59.8520002 136.29083,60.0069987 136.790833,60.0069987 C137.290835,60.0069987 137.708331,59.8520002 138.043333,59.5419987 C138.378335,59.2319971 138.545833,58.8170013 138.545833,58.2969987 C138.545833,57.7869961 138.378335,57.3770002 138.043333,57.0669987 C137.708331,56.7569971 137.290835,56.6019987 136.790833,56.6019987 C136.29083,56.6019987 135.875835,56.7544971 135.545833,57.0594987 C135.215831,57.3645002 135.050833,57.7769961 135.050833,58.2969987 C135.050833,58.8170013 135.215831,59.2319971 135.545833,59.5419987 Z M147.170833,61.9569987 C145.860826,61.9569987 144.833337,61.4595036 144.088333,60.4644987 C143.343329,59.4694937 142.970833,58.1470069 142.970833,56.4969987 C142.970833,54.8469904 143.343329,53.5245036 144.088333,52.5294987 C144.833337,51.5344937 145.860826,51.0369987 147.170833,51.0369987 C148.490839,51.0369987 149.520829,51.5344937 150.260833,52.5294987 C151.000837,53.5245036 151.370833,54.8469904 151.370833,56.4969987 C151.370833,58.1470069 151.000837,59.4694937 150.260833,60.4644987 C149.520829,61.4595036 148.490839,61.9569987 147.170833,61.9569987 Z M145.580833,59.0619987 C145.940835,59.6420016 146.470829,59.9319987 147.170833,59.9319987 C147.870836,59.9319987 148.403331,59.6370016 148.768333,59.0469987 C149.133335,58.4569957 149.315833,57.6070042 149.315833,56.4969987 C149.315833,55.3769931 149.133335,54.5220016 148.768333,53.9319987 C148.403331,53.3419957 147.870836,53.0469987 147.170833,53.0469987 C146.470829,53.0469987 145.940835,53.3419957 145.580833,53.9319987 C145.220831,54.5220016 145.040833,55.3769931 145.040833,56.4969987 C145.040833,57.6170043 145.220831,58.4719957 145.580833,59.0619987 Z" fill="#2468EB" transform="translate(137.345833, 56.496999) rotate(16.000000) translate(-137.345833, -56.496999) "></path>
            <path d="M160.019267,57.6352766 C159.505931,58.1419458 158.87927,58.3952766 158.139267,58.3952766 C157.399263,58.3952766 156.774269,58.1402791 156.264267,57.6302766 C155.754264,57.120274 155.499267,56.4952803 155.499267,55.7552766 C155.499267,55.0152729 155.754264,54.3902791 156.264267,53.8802766 C156.774269,53.370274 157.399263,53.1152766 158.139267,53.1152766 C158.87927,53.1152766 159.505931,53.370274 160.019267,53.8802766 C160.532602,54.3902791 160.789267,55.0152729 160.789267,55.7552766 C160.789267,56.4952803 160.532602,57.1219407 160.019267,57.6352766 Z M157.169267,56.7452766 C157.429268,57.0052779 157.752598,57.1352766 158.139267,57.1352766 C158.525935,57.1352766 158.849265,57.0052779 159.109267,56.7452766 C159.369268,56.4852753 159.499267,56.1552786 159.499267,55.7552766 C159.499267,55.3552746 159.369268,55.0252779 159.109267,54.7652766 C158.849265,54.5052753 158.525935,54.3752766 158.139267,54.3752766 C157.752598,54.3752766 157.430935,54.5052753 157.174267,54.7652766 C156.917599,55.0252779 156.789267,55.3552746 156.789267,55.7552766 C156.789267,56.1552786 156.915932,56.4852753 157.169267,56.7452766 Z" id="о" fill="#2468EB" transform="translate(158.144267, 55.755277) rotate(16.000000) translate(-158.144267, -55.755277) "></path>
            <path id="Path-2" d="M7.25770624,20.5290549 C49.6850167,54.9810951 95.8576187,75.9629094 145.78255,83.4808333 C195.637489,90.9882172 245.158234,87.3942314 294.350033,72.6980415 C293.931058,70.4747623 295.242701,68.2447403 297.456582,67.5671232 C299.833039,66.8397455 302.349193,68.1765881 303.076571,70.5530445 C303.803949,72.929501 302.467106,75.4456556 300.09065,76.1730333 C297.874832,76.8512431 295.537564,75.7348671 294.642089,73.654462 C245.308025,88.3940345 195.636794,91.9993868 145.633645,84.4696847 C95.5263404,76.9242983 49.1869106,55.8660704 6.62239463,21.3013369 C4.99992223,22.8818542 2.41330862,23.0204679 0.624730066,21.5469686 C-1.29344307,19.9667042 -1.56737228,17.1306603 0.012892041,15.2124872 C1.59315636,13.2943141 4.42920028,13.0203848 6.34737341,14.6006492 C8.13425573,16.0727511 8.49427418,18.6346101 7.25770624,20.5290549 Z M6.28960414,20.1691827 C7.40321845,18.6816348 7.16064441,16.5663031 5.71152415,15.3724624 C4.21961171,14.143368 2.01379978,14.356424 0.784705307,15.8483365 C-0.444389167,17.3402489 -0.231333111,19.5460608 1.26057933,20.7751553 C2.70969966,21.968996 4.83235365,21.8022293 6.07926611,20.4244974 C6.0978731,20.3738565 6.12505773,20.3253875 6.16103683,20.2812106 C6.19826844,20.2354958 6.24190729,20.198073 6.28960414,20.1691827 Z" fill="#B7C6E3" fill-rule="nonzero"></path>
        </g>
    </g>
</svg>