<svg xmlns="http://www.w3.org/2000/svg" width="64" height="67" viewBox="0 0 64 67">
    <g fill="#2468EB" stroke="#2468EB" stroke-width=".3">
        <path d="M11.5 31c2.206 0 4-1.794 4-4s-1.794-4-4-4-4 1.794-4 4 1.794 4 4 4zm0-6.063c1.137 0 2.063.926 2.063 2.063s-.926 2.063-2.063 2.063S9.437 28.137 9.437 27s.926-2.063 2.063-2.063zM22.5 31c2.206 0 4-1.794 4-4s-1.794-4-4-4-4 1.794-4 4 1.794 4 4 4zm0-6.063c1.137 0 2.063.926 2.063 2.063s-.926 2.063-2.063 2.063-2.063-.926-2.063-2.063.925-2.063 2.063-2.063zM35.5 31c2.206 0 4-1.794 4-4s-1.794-4-4-4-4 1.794-4 4 1.794 4 4 4zm0-6.063c1.137 0 2.063.926 2.063 2.063s-.926 2.063-2.063 2.063-2.063-.926-2.063-2.063.926-2.063 2.063-2.063zM51.5 27c0-2.206-1.794-4-4-4s-4 1.794-4 4 1.794 4 4 4 4-1.794 4-4zm-6.063 0c0-1.137.925-2.063 2.063-2.063 1.137 0 2.063.926 2.063 2.063s-.926 2.063-2.063 2.063c-1.138 0-2.063-.926-2.063-2.063zM11.5 42c2.206 0 4-1.794 4-4s-1.794-4-4-4-4 1.794-4 4 1.794 4 4 4zm0-6.063c1.137 0 2.063.926 2.063 2.063s-.926 2.063-2.063 2.063S9.437 39.137 9.437 38s.926-2.063 2.063-2.063zM22.5 42c2.206 0 4-1.794 4-4s-1.794-4-4-4-4 1.794-4 4 1.794 4 4 4zm0-6.063c1.137 0 2.063.926 2.063 2.063s-.926 2.063-2.063 2.063-2.063-.926-2.063-2.063.925-2.063 2.063-2.063zM11.5 53c2.206 0 4-1.794 4-4s-1.794-4-4-4-4 1.794-4 4 1.794 4 4 4zm0-6.063c1.137 0 2.063.926 2.063 2.063s-.926 2.063-2.063 2.063S9.437 50.137 9.437 49s.926-2.063 2.063-2.063zM18.802 52.732c.395.35 1.054.35 1.45 0L23 50.288l2.75 2.444c.934.83 2.382-.458 1.448-1.288L24.45 49l2.75-2.443c.933-.83-.514-2.12-1.45-1.288L23 47.712l-2.749-2.443c-.934-.83-2.385.456-1.449 1.288L21.552 49l-2.75 2.444c-.4.355-.4.932 0 1.288z" transform="translate(0 1)"/>
        <path d="M62.512 43.01c-.424-1.157-2.24-.506-1.815.651.573 1.564.866 3.21.872 4.889.027 7.896-6.679 14.54-14.658 14.54-8.059 0-14.629-6.469-14.656-14.443-.027-7.919 6.652-14.54 14.658-14.54 4.562 0 8.783 2.044 11.585 5.614.764.973 2.289-.198 1.526-1.17-.667-.85-1.404-1.62-2.201-2.312V10.16c0-2.243-1.845-4.068-4.113-4.068h-5.798V2.74c0-3.648-5.73-3.659-5.73 0V6.09H32.024V2.74c0-3.648-5.73-3.659-5.73 0V6.09H16.136V2.74c0-3.648-5.73-3.659-5.73 0V6.09H4.613C2.345 6.091.5 7.916.5 10.158v34.07c0 1.232 1.93 1.232 1.93 0V19.433h53.462v15.363c-4.196-2.679-9.549-3.32-14.28-1.747-1.32.438-2.583 1.045-3.749 1.798-.746-.872-1.842-1.388-3.036-1.388-2.199 0-3.987 1.769-3.987 3.943 0 1.253.611 2.423 1.604 3.16-2.572 4.51-2.804 10.123-.629 14.831H4.613c-1.203 0-2.182-.968-2.182-2.157v-4.298c0-1.231-1.931-1.231-1.931 0v4.298c0 2.242 1.845 4.067 4.113 4.067h28.246C35.797 61.925 41 65.001 46.911 65c9.063 0 16.62-7.493 16.589-16.457-.007-1.9-.339-3.76-.988-5.532zM44.113 2.74c0-1.186 1.868-1.188 1.868 0v8.279c0 1.186-1.868 1.188-1.868 0v-8.28zm-15.888 0c0-1.186 1.868-1.188 1.868 0v8.279c0 1.194-1.868 1.194-1.868 0v-8.28zm-15.888 0c0-1.186 1.868-1.188 1.868 0v8.279c0 1.186-1.868 1.188-1.868 0v-8.28zM2.43 17.523v-7.365c0-1.19.979-2.157 2.182-2.157h5.793v3.018c0 3.647 5.73 3.658 5.73 0V8h10.158v3.018c0 3.654 5.73 3.654 5.73 0V8h10.158v3.018c0 3.647 5.73 3.658 5.73 0V8h5.798c1.203 0 2.182.968 2.182 2.157v7.365H2.431zm30.34 19.88c0-1.122.922-2.034 2.056-2.034.57 0 1.097.228 1.477.619-1.054.87-2 1.865-2.81 2.962-.45-.382-.723-.946-.723-1.548z" transform="translate(0 1)"/>
        <path d="M46.99 54c-.801.003-1.553.317-2.118.886-.565.568-.875 1.323-.872 2.124.003.802.317 1.554.886 2.119.566.562 1.316.871 2.114.871h.01c.801-.003 1.553-.317 2.118-.886.565-.568.875-1.323.872-2.124-.003-.801-.317-1.554-.886-2.119-.568-.564-1.325-.868-2.124-.871zm1.124 2.996c.001.298-.114.578-.323.789-.21.21-.49.328-.787.329H47c-.296 0-.575-.115-.785-.324-.211-.21-.328-.489-.329-.786 0-.298.114-.578.324-.789.21-.21.489-.328.787-.329H47c.296 0 .574.115.785.324.21.21.327.489.328.786zM50 38.775C50 37.245 48.654 36 47 36s-3 1.245-3 2.775v11.45C44 51.755 45.346 53 47 53s3-1.245 3-2.775v-11.45zm-2 11.21c0 .56-.449 1.015-1 1.015-.551 0-1-.455-1-1.014V39.014c0-.559.449-1.014 1-1.014.551 0 1 .455 1 1.014v10.972z" transform="translate(0 1)"/>
    </g>
</svg>
