<svg xmlns="http://www.w3.org/2000/svg" width="68" height="68" viewBox="0 0 68 68">
    <g fill="#2468EB">
        <path d="M20.562 47.473l-.043-.043c-.578-.575-1.513-.573-2.089.005-.575.578-.573 1.514.005 2.09l.048.047c.288.286.664.428 1.04.428.38 0 .76-.146 1.05-.438.573-.58.569-1.514-.01-2.089z"/>
        <path d="M48.711 19.288c-8.385-8.384-22.029-8.384-30.414 0-6.865 6.864-8.28 17.525-3.44 25.927.365.636 1.177.854 1.812.488.636-.365.854-1.177.488-1.812-4.24-7.364-3-16.71 3.017-22.726 7.35-7.349 19.31-7.349 26.66 0 7.35 7.35 7.35 19.307 0 26.657-6.054 6.053-15.44 7.27-22.823 2.961-.634-.37-1.446-.156-1.816.478-.37.633-.156 1.446.477 1.815C26.042 55.042 29.775 56 33.485 56c5.568 0 11.082-2.157 15.226-6.301 8.385-8.385 8.385-22.027 0-30.41z"/>
        <path d="M67.995 28.164c0-.653-.475-1.209-1.12-1.31l-4.902-.778-2.601-6.272 2.914-4.018c.383-.529.326-1.258-.136-1.72l-8.237-8.23c-.462-.462-1.191-.52-1.72-.136L48.18 8.616 41.902 6.02l-.78-4.9C41.02.475 40.463 0 39.81 0L28.164.005c-.653 0-1.209.475-1.31 1.12l-.777 4.903-6.273 2.6-4.018-2.914c-.528-.383-1.257-.326-1.719.136l-8.232 8.238c-.461.462-.519 1.19-.135 1.719l2.916 4.014-2.597 6.277-4.9.78C.474 26.981 0 27.538 0 28.19l.005 11.645c0 .653.475 1.21 1.12 1.312l4.903.776 2.6 6.273-2.914 4.018c-.383.529-.326 1.258.136 1.719l8.238 8.232c.462.461 1.19.519 1.719.135l4.014-2.916 6.277 2.597.78 4.9c.103.644.659 1.119 1.312 1.119l11.645-.005c.653 0 1.21-.475 1.312-1.12l.776-4.903 6.273-2.6 4.018 2.914c.528.383 1.258.325 1.719-.137l8.232-8.237c.461-.462.519-1.19.135-1.72l-2.916-4.013 2.597-6.277 4.9-.78c.645-.103 1.12-.66 1.119-1.312l-.005-11.646zM60.83 39.396c-.456.072-.842.377-1.018.803l-3.166 7.651c-.177.427-.119.915.153 1.288l2.686 3.699-6.628 6.633-3.702-2.685c-.374-.271-.862-.329-1.289-.152l-7.646 3.17c-.426.177-.73.563-.803 1.02l-.715 4.516-9.378.004-.719-4.514c-.072-.456-.377-.842-.803-1.018l-7.651-3.166c-.163-.068-.336-.101-.508-.101-.276 0-.55.086-.78.254l-3.699 2.686-6.633-6.628 2.685-3.702c.272-.374.329-.862.152-1.289l-3.17-7.646c-.177-.426-.563-.73-1.02-.803l-4.516-.715-.004-9.378 4.514-.719c.456-.072.842-.377 1.019-.804l3.165-7.65c.177-.427.119-.915-.153-1.288l-2.686-3.699 6.628-6.633 3.703 2.685c.374.271.861.329 1.288.152l7.646-3.17c.427-.178.73-.563.803-1.02l.715-4.516 9.378-.004.719 4.514c.073.456.377.842.804 1.018l7.65 3.166c.427.176.915.119 1.289-.153l3.698-2.686 6.633 6.628-2.685 3.702c-.271.374-.329.862-.152 1.289l3.17 7.646c.178.426.563.73 1.02.803l4.517.715.003 9.378-4.514.719z"/>
        <path d="M45.583 36.152c-1.66-1.507-3.888-2.161-6.089-1.82L33.67 28.51c.354-2.307-.407-4.68-2.075-6.348-2.09-2.09-5.217-2.73-7.964-1.631-.414.165-.717.528-.807.964-.09.437.046.889.362 1.204l1.923 1.923c.407.407.407 1.069 0 1.476-.407.407-1.07.407-1.477 0l-1.93-1.93c-.314-.314-.765-.45-1.201-.361-.436.088-.799.39-.966.801-1.156 2.856-.4 6.167 1.883 8.24 1.66 1.508 3.891 2.162 6.094 1.818l5.82 5.818c-.357 2.308.404 4.684 2.073 6.353C36.818 48.25 38.701 49 40.621 49c.93 0 1.871-.177 2.77-.54.413-.166.714-.529.803-.965.089-.436-.047-.887-.362-1.202l-1.914-1.914c-.407-.407-.407-1.069 0-1.476.407-.407 1.07-.407 1.477 0l1.91 1.91c.315.315.767.451 1.204.362.436-.09.799-.392.965-.806 1.143-2.849.383-6.151-1.891-8.217zm-.313 4.876c-1.441-1.44-3.787-1.441-5.228 0-1.441 1.441-1.441 3.786 0 5.227l.065.064c-1.047-.114-2.048-.579-2.826-1.357-1.19-1.19-1.66-2.94-1.224-4.568.122-.457-.009-.945-.344-1.28l-6.832-6.83c-.252-.252-.59-.388-.938-.388-.113 0-.227.014-.34.044-1.57.417-3.216.022-4.402-1.055-.87-.791-1.395-1.864-1.52-2.988l.076.076c1.44 1.441 3.786 1.441 5.227 0 1.442-1.44 1.442-3.785 0-5.226l-.062-.063c1.037.12 2.027.583 2.797 1.353 1.189 1.189 1.658 2.937 1.226 4.564-.122.457.009.944.343 1.279l6.836 6.834c.334.334.82.465 1.277.344 1.569-.414 3.213-.02 4.398 1.057.863.783 1.386 1.845 1.517 2.96l-.046-.047zM46.708 24.775c-2.263-2.899-5.47-4.937-9.033-5.741-.74-.167-1.475.299-1.641 1.04-.167.743.298 1.48 1.038 1.646 2.946.665 5.6 2.352 7.474 4.752.27.347.674.528 1.082.528.296 0 .594-.096.845-.293.597-.468.703-1.334.235-1.932zM48.929 29.084l-.022-.066c-.253-.772-1.092-1.196-1.875-.947-.783.25-1.212 1.077-.96 1.85l.02.057c.202.624.787 1.022 1.418 1.022.15 0 .303-.023.453-.07.784-.247 1.216-1.073.966-1.846z"/>
    </g>
</svg>
