<?xml version="1.0" encoding="utf-8"?>
<!-- Generator: Adobe Illustrator 24.1.0, SVG Export Plug-In . SVG Version: 6.00 Build 0)  -->
<svg version="1.1" id="Слой_1" xmlns="http://www.w3.org/2000/svg" xmlns:xlink="http://www.w3.org/1999/xlink" x="0px" y="0px"
	 viewBox="0 0 1366 1426" style="enable-background:new 0 0 1366 1426;" xml:space="preserve">
<style type="text/css">
	.st0{fill-rule:evenodd;clip-rule:evenodd;fill:#CED9EF;fill-opacity:0.1029;}
	.st1{fill:none;stroke:#E8EBF1;stroke-opacity:0.4982;}
	.st2{fill:none;stroke:#E8EBF1;stroke-opacity:0.3001;}
	.st3{fill-rule:evenodd;clip-rule:evenodd;fill:#CED9EF;fill-opacity:0.149;}
	.st4{fill-rule:evenodd;clip-rule:evenodd;fill:#CED9EF;fill-opacity:0.1785;}
	.st5{fill:none;}
	.st6{enable-background:new    ;}
	.st7{fill:#2468EB;}
	.st8{fill:#B7C6E3;}
</style>
<desc>Created with Sketch.</desc>
<g id="Page-1">
	<g id="Стр.-Главная">
		<g id="графика_x28_экран-1_x29_" transform="translate(-127.000000, -563.000000)">
			<circle id="Oval-Copy-3" class="st0" cx="963" cy="916" r="381"/>
			<ellipse id="Oval-Copy-5" class="st1" cx="963" cy="915.5" rx="448" ry="447.5"/>
			<ellipse id="Oval-Copy-6" class="st2" cx="963" cy="915.5" rx="511" ry="510.5"/>
			<circle id="Oval-Copy-2" class="st3" cx="963" cy="916" r="303"/>
			<circle id="Oval" class="st4" cx="963" cy="916" r="216"/>
			<rect id="Rectangle-2-Copy-5" x="127" y="563" class="st5" width="1366" height="1417"/>
			<g id="_x33_60" transform="translate(732.890761, 1122.626078)">
				<g class="st6">
					<path class="st7" d="M129,50c0.6,0.5,1,1,1.2,1.7c0.2,0.7,0.2,1.3-0.1,2c-0.4,1-1.1,1.6-2,1.9c-0.9,0.3-1.8,0.2-2.8-0.2
						c-0.8-0.3-1.4-0.8-1.8-1.4c-0.4-0.6-0.7-1.3-0.6-2.1l2-0.2c-0.1,0.8,0.3,1.5,1.2,1.8c0.5,0.2,0.9,0.3,1.3,0.1
						c0.4-0.1,0.6-0.4,0.8-0.8c0.2-0.4,0.2-0.8,0-1.1s-0.5-0.6-1-0.8l-0.4-0.2l-0.3-1.4l3-1.7l-3.8-1.6l0.8-1.8l6.1,2.6l-0.7,1.6
						L129,50z"/>
					<path class="st7" d="M137.3,52.6c1,0.5,1.7,1.1,2,2s0.3,1.8-0.1,2.8c-0.4,1-1.1,1.7-2,2s-1.9,0.3-2.9-0.1c-1-0.4-1.7-1.1-2.1-2
						c-0.4-0.9-0.4-1.8,0.1-2.8c0.3-0.7,0.8-1.3,1.4-1.7l4.9-3.3l2.2,0.9L137.3,52.6z M134.1,56.6c0.2,0.4,0.5,0.7,1,0.9
						c0.5,0.2,0.9,0.2,1.3,0.1c0.4-0.2,0.7-0.5,0.9-0.9c0.2-0.5,0.2-0.9,0-1.3c-0.2-0.4-0.5-0.7-1-0.9c-0.5-0.2-0.9-0.2-1.3-0.1
						c-0.4,0.2-0.7,0.5-0.9,0.9C133.9,55.7,133.9,56.2,134.1,56.6z"/>
					<path class="st7" d="M143.8,63.4c-1.2-0.5-2-1.4-2.3-2.6c-0.3-1.2-0.1-2.6,0.5-4.1c0.6-1.5,1.5-2.6,2.6-3.2
						c1.1-0.6,2.2-0.7,3.4-0.2c1.2,0.5,2,1.4,2.3,2.6c0.3,1.2,0.1,2.6-0.5,4.1c-0.6,1.5-1.5,2.6-2.6,3.2
						C146.2,63.8,145,63.9,143.8,63.4z M143.5,60.1c0.1,0.7,0.5,1.2,1.1,1.4c0.6,0.3,1.2,0.2,1.8-0.2c0.6-0.4,1.1-1.1,1.5-2.1
						c0.4-1,0.6-1.9,0.5-2.6c-0.1-0.7-0.5-1.2-1.1-1.4c-0.6-0.3-1.2-0.2-1.8,0.2c-0.6,0.4-1.1,1.1-1.5,2.2
						C143.6,58.5,143.4,59.4,143.5,60.1z"/>
				</g>
				<g class="st6">
					<path class="st7" d="M158.4,58.9c-0.7,0.3-1.3,0.3-2,0c-0.7-0.3-1.2-0.8-1.4-1.4c-0.3-0.7-0.3-1.3,0-2s0.8-1.2,1.4-1.4
						c0.7-0.3,1.3-0.3,2,0c0.7,0.3,1.2,0.8,1.4,1.4s0.3,1.3,0,2C159.6,58.1,159.1,58.6,158.4,58.9z M156.1,56.9
						c0.1,0.3,0.4,0.6,0.7,0.7c0.4,0.2,0.7,0.2,1,0s0.6-0.4,0.7-0.8s0.2-0.7,0-1.1c-0.1-0.3-0.4-0.6-0.7-0.7c-0.4-0.2-0.7-0.2-1,0
						s-0.6,0.4-0.7,0.8C156,56.2,156,56.6,156.1,56.9z"/>
				</g>
				<path id="Path-2" class="st8" d="M11.3,3.9c-1.8,1.4-4.4,1.2-6-0.5C3.6,1.6,3.7-1.3,5.5-3s4.7-1.6,6.4,0.2
					c1.6,1.7,1.6,4.3,0.2,6C49.9,42.6,93.2,69,141.8,82.6c48.6,13.5,98.2,16,148.8,7.4c-0.1-2.3,1.4-4.3,3.7-4.7
					c2.4-0.4,4.8,1.2,5.2,3.6c0.4,2.4-1.2,4.8-3.6,5.2c-2.3,0.4-4.5-1-5.1-3.2c-50.8,8.6-100.5,6.1-149.2-7.5
					C92.8,69.9,49.3,43.4,11.3,3.9z M11.1,2.7c1.3-1.3,1.3-3.5,0-4.8C9.8-3.5,7.6-3.6,6.2-2.2S4.7,1.3,6.1,2.7
					c1.3,1.4,3.4,1.5,4.8,0.2c0,0,0.1-0.1,0.1-0.1C11,2.8,11.1,2.7,11.1,2.7z"/>
			</g>
		</g>
	</g>
</g>
</svg>
