<?xml version="1.0" encoding="UTF-8"?>
<svg width="28px" height="29px" viewBox="0 0 28 29" version="1.1" xmlns="http://www.w3.org/2000/svg" xmlns:xlink="http://www.w3.org/1999/xlink">
    <!-- Generator: Sketch 52.6 (67491) - http://www.bohemiancoding.com/sketch -->
    <title>phone-call</title>
    <desc>Created with Sketch.</desc>
    <g id="Page-1" stroke="none" stroke-width="1" fill="none" fill-rule="evenodd">
        <g id="Стр.-Товара(мобил.)" transform="translate(-42.000000, -30.000000)" fill="#B1BDD4" fill-rule="nonzero" stroke="#B1BDD4" stroke-width="0.5">
            <g id="phone-call" transform="translate(43.000000, 31.000000)">
                <path d="M21.0453317,17.3064516 C20.4996663,16.7634409 19.8414925,16.4731183 19.1439407,16.4731183 C18.4520144,16.4731183 17.7882152,16.7580645 17.2200481,17.3010753 L15.4424162,18.9946237 C15.2961554,18.9193548 15.1498945,18.8494624 15.0092591,18.7795699 C14.8067441,18.6827957 14.6154799,18.5913978 14.4523428,18.4946237 C12.7872193,17.483871 11.2739821,16.1666667 9.82262447,14.4623656 C9.11944733,13.6129032 8.64691228,12.8978495 8.30376184,12.172043 C8.76504604,11.7688172 9.19257775,11.3494624 9.60885862,10.9462366 C9.7663703,10.7956989 9.92388198,10.6397849 10.0813937,10.4892473 C11.2627313,9.36021505 11.2627313,7.89784946 10.0813937,6.7688172 L8.54565477,5.30107527 C8.37126684,5.1344086 8.19125349,4.96236559 8.02249098,4.79032258 C7.68496595,4.45698925 7.33056467,4.11290323 6.96491255,3.79032258 C6.41924708,3.27419355 5.76669869,3 5.0803978,3 C4.3940969,3 3.73029768,3.27419355 3.16775596,3.79032258 C3.16213054,3.79569892 3.16213054,3.79569892 3.15650512,3.80107527 L1.24386329,5.64516129 C0.523809888,6.33333333 0.113154434,7.17204301 0.0231477595,8.14516129 C-0.111862253,9.71505376 0.371923624,11.1774194 0.743201157,12.1344086 C1.65451874,14.483871 3.01586969,16.6612903 5.04664529,18.9946237 C7.51057801,21.8064516 10.4751729,24.0268817 13.861674,25.5913978 C15.15552,26.1774194 16.882523,26.8709677 18.8120411,26.9892473 C18.9301749,26.9946237 19.053934,27 19.1664424,27 C20.4659138,27 21.5572447,26.5537634 22.4123081,25.6666667 C22.4179335,25.655914 22.4291844,25.6505376 22.4348098,25.6397849 C22.7273315,25.3010753 23.0648565,24.9946237 23.4192578,24.6666667 C23.6611507,24.4462366 23.9086691,24.2150538 24.150562,23.9731183 C24.7074783,23.4193548 25,22.7741935 25,22.1129032 C25,21.4462366 24.7018529,20.8064516 24.1336858,20.2688172 L21.0453317,17.3064516 Z M23.0592311,22.9677419 C23.0536057,22.9677419 23.0536057,22.9731183 23.0592311,22.9677419 C22.8398398,23.1935484 22.6148231,23.3978495 22.3729302,23.6236559 C22.0072781,23.9569892 21.6360005,24.3064516 21.2872247,24.6989247 C20.7190575,25.2795699 20.0496329,25.5537634 19.1720678,25.5537634 C19.0876866,25.5537634 18.9976799,25.5537634 18.9132986,25.5483871 C17.2425497,25.4462366 15.6899346,24.8225806 14.5254732,24.2903226 C11.3414871,22.8172043 8.54565477,20.7258065 6.22235748,18.0752688 C4.30409023,15.8655914 3.02149511,13.8225806 2.17205712,11.6290323 C1.64889332,10.2903226 1.45762914,9.24731183 1.5420104,8.26344086 C1.59826457,7.6344086 1.85140834,7.11290323 2.31831797,6.66666667 L4.23658522,4.83333333 C4.51223066,4.58602151 4.80475236,4.4516129 5.09164863,4.4516129 C5.44604991,4.4516129 5.73294619,4.65591398 5.91295954,4.82795699 C5.91858496,4.83333333 5.92421037,4.83870968 5.92983579,4.84408602 C6.27298624,5.15053763 6.59926043,5.46774194 6.94241088,5.80645161 C7.11679881,5.97849462 7.29681216,6.15053763 7.47682551,6.32795699 L9.0125644,7.79569892 C9.60885862,8.3655914 9.60885862,8.89247312 9.0125644,9.46236559 C8.8494273,9.61827957 8.69191562,9.77419355 8.52877852,9.92473118 C8.05624348,10.3870968 7.60621011,10.8172043 7.11679881,11.2365591 C7.10554798,11.2473118 7.09429714,11.2526882 7.08867173,11.2634409 C6.60488585,11.7258065 6.69489252,12.1774194 6.79615003,12.483871 C6.80177545,12.5 6.80740087,12.516129 6.81302629,12.5322581 C7.2124309,13.4569892 7.77497262,14.327957 8.63003603,15.3655914 L8.63566145,15.3709677 C10.1882766,17.1989247 11.825273,18.6236559 13.6310319,19.7150538 C13.861674,19.8548387 14.0979415,19.9677419 14.3229582,20.0752688 C14.5254732,20.172043 14.7167374,20.2634409 14.8798745,20.3602151 C14.9023762,20.3709677 14.9248778,20.3870968 14.9473795,20.3978495 C15.1386437,20.4892473 15.318657,20.5322581 15.5042958,20.5322581 C15.9712054,20.5322581 16.2637271,20.2526882 16.3593592,20.1612903 L18.2832519,18.3225806 C18.4745161,18.1397849 18.7782886,17.9193548 19.1326899,17.9193548 C19.4814658,17.9193548 19.768362,18.1290323 19.94275,18.311828 C19.9483754,18.3172043 19.9483754,18.3172043 19.9540008,18.3225806 L23.0536057,21.2849462 C23.6330236,21.8333333 23.6330236,22.3978495 23.0592311,22.9677419 Z" id="Shape"></path>
                <path d="M14.6225649,6.50052385 C16.0904254,6.74705571 17.4238254,7.44182729 18.4883044,8.50639666 C19.5527834,9.57096603 20.2418934,10.9044792 20.4940069,12.3724644 C20.5556346,12.7422622 20.8749783,13 21.2391422,13 C21.2839623,13 21.32318,12.994397 21.3680001,12.988794 C21.7825867,12.921558 22.0571102,12.5293483 21.98988,12.1147265 C21.6873438,10.3385766 20.8469657,8.71931054 19.5639884,7.4362243 C18.2810111,6.15313806 16.6618826,5.31268856 14.8858834,5.01012674 C14.4712969,4.94289077 14.0847229,5.21743761 14.0118901,5.62645637 C13.9390574,6.03547513 14.2079784,6.43328789 14.6225649,6.50052385 Z" id="Path"></path>
                <path d="M25.9890079,10.2359948 C25.5136788,7.67951606 24.1998479,5.35321832 22.1810346,3.50197506 C20.1622212,1.65073181 17.6253526,0.445954451 14.8374675,0.0100797164 C14.4475909,-0.0535873797 14.0790773,0.191286067 14.0096472,0.548801299 C13.9455579,0.911214 14.2072559,1.24913936 14.6024734,1.31280645 C17.091275,1.6997065 19.3611048,2.78204713 21.1662871,4.43249416 C22.9714694,6.08783866 24.1464402,8.16926296 24.5683615,10.4514835 C24.62711,10.7747164 24.9315342,11 25.2786847,11 C25.3214109,11 25.3587963,10.9951025 25.4015225,10.9902051 C25.7913992,10.9363329 26.058438,10.5935101 25.9890079,10.2359948 Z" id="Path"></path>
            </g>
        </g>
    </g>
</svg>