<svg xmlns="http://www.w3.org/2000/svg" width="22" height="22" viewBox="0 0 22 22">
    <path fill="#2468EB" stroke="#2468EB" d="M20.755 19.58l-4.808-4.809c1.192-1.453 1.91-3.314 1.91-5.342C17.857 4.776 14.082 1 9.43 1 4.77 1 1 4.776 1 9.429c0 4.653 3.771 8.428 8.429 8.428 2.028 0 3.885-.714 5.338-1.906l4.809 4.804c.326.327.853.327 1.18 0 .326-.322.326-.853 0-1.175zM9.43 16.18c-3.727 0-6.756-3.029-6.756-6.751 0-3.723 3.029-6.756 6.756-6.756 3.722 0 6.755 3.033 6.755 6.756 0 3.722-3.033 6.75-6.755 6.75z"/>
</svg>
