<?xml version="1.0" encoding="UTF-8"?>
<svg width="51px" height="18px" viewBox="0 0 51 18" version="1.1" xmlns="http://www.w3.org/2000/svg" xmlns:xlink="http://www.w3.org/1999/xlink">
    <!-- Generator: Sketch 52.6 (67491) - http://www.bohemiancoding.com/sketch -->
    <title>T&amp;T</title>
    <desc>Created with Sketch.</desc>
    <defs>
        <path d="M108.472,61 L108.472,47.368 L103.096,47.368 L103.096,44.2 L117.736,44.2 L117.736,47.368 L112.36,47.368 L112.36,61 L108.472,61 Z M136.528,58.912 L134.488,61.288 L132.472,59.416 C130.936,60.616 129.016,61.288 126.856,61.288 C123.16,61.288 120.448,59.368 120.448,56.68 C120.448,54.568 121.576,53.104 124.144,51.664 C122.92,50.392 122.416,49.312 122.416,48.112 C122.416,45.664 124.48,43.984 127.648,43.984 C130.552,43.984 132.472,45.472 132.472,47.848 C132.472,49.576 131.464,50.848 129.184,52.096 L132.256,54.952 C132.616,54.208 132.904,53.32 133.096,52.336 L136.096,53.272 C135.784,54.712 135.28,56.008 134.56,57.088 L136.528,58.912 Z M127.648,46.528 C126.496,46.528 125.824,47.176 125.824,48.064 C125.824,48.712 126.088,49.192 127.12,50.2 C128.776,49.312 129.304,48.688 129.304,47.92 C129.304,47.104 128.728,46.528 127.648,46.528 Z M127.12,58.36 C128.272,58.36 129.352,58.024 130.264,57.376 L126.208,53.584 C124.672,54.472 124.12,55.24 124.12,56.272 C124.12,57.496 125.272,58.36 127.12,58.36 Z M144.352,61 L144.352,47.368 L138.976,47.368 L138.976,44.2 L153.616,44.2 L153.616,47.368 L148.24,47.368 L148.24,61 L144.352,61 Z" id="path-1"></path>
    </defs>
    <g id="Page-1" stroke="none" stroke-width="1" fill="none" fill-rule="evenodd">
        <g id="Стр.-Главная-1" transform="translate(-103.000000, -44.000000)">
            <g id="menu">
                <g id="T&amp;T">
                    <use fill="#FFFFFF" xlink:href="#path-1"></use>
                    <use fill="#2468EB" xlink:href="#path-1"></use>
                </g>
            </g>
        </g>
    </g>
</svg>