<svg xmlns="http://www.w3.org/2000/svg" width="66" height="66" viewBox="0 0 66 66">
    <g fill="#2468EB">
        <path d="M43 44c-.552 0-1 .448-1 1s.448 1 1 1 1-.448 1-1-.448-1-1-1zM16 22c.552 0 1-.597 1-1.333v-5.334c0-.736-.448-1.333-1-1.333s-1 .597-1 1.333v5.334c0 .736.448 1.333 1 1.333z"/>
        <path d="M60.844 30.422V20.109c0-3.554-2.892-6.445-6.446-6.445H47.18V3.867C47.18 1.735 45.445 0 43.313 0H19.335c-2.133 0-3.867 1.735-3.867 3.867v4.64h-3.867c-2.133 0-3.868 1.736-3.868 3.868v1.29H6.445C2.891 13.664 0 16.554 0 20.108v39.446C0 63.109 2.891 66 6.445 66h39.446c3.112 0 5.716-2.218 6.315-5.156h2.192c3.554 0 6.446-2.892 6.446-6.446v-3.351h1.289c2.132 0 3.867-1.735 3.867-3.867V35.578c0-2.843-2.313-5.156-5.156-5.156zm2.578 5.156c0 1.424-1.154 2.578-2.578 2.578V33c1.421 0 2.578 1.157 2.578 2.578zm-9.024-19.336c2.133 0 3.868 1.735 3.868 3.867v18.047h-5.93v-7.734c0-3.113-2.218-5.717-5.156-6.316v-7.864h7.218zM18.047 3.867c0-.71.578-1.289 1.289-1.289h23.977c.71 0 1.289.578 1.289 1.29v20.109h-5.93V12.375c0-2.132-1.735-3.867-3.867-3.867H18.047v-4.64zm12.89 20.11V11.086h3.868c.71 0 1.289.578 1.289 1.289v11.602h-5.157zm-7.734 0V11.086h5.156v12.89h-5.156zm-12.89-11.602c0-.711.578-1.29 1.289-1.29h9.023v12.892H10.312V12.375zm-3.868 3.867h1.29v7.735H6.72c-2.13 0-4.143-1.543-4.143-3.868 0-2.132 1.735-3.867 3.867-3.867zm39.446 47.18H6.445c-2.132 0-3.867-1.735-3.867-3.867V25.186c1.153.859 2.6 1.369 4.143 1.369h39.17c2.132 0 3.867 1.734 3.867 3.867v7.734h-9.024c-2.132 0-3.867 1.735-3.867 3.867v5.157c0 2.132 1.735 3.867 3.867 3.867h9.024v8.508c0 2.132-1.735 3.867-3.867 3.867zm12.375-9.024c0 2.133-1.735 3.868-3.868 3.868h-2.062v-7.22h5.93v3.352zm3.867-5.93H40.734c-.71 0-1.289-.577-1.289-1.288v-5.157c0-.71.578-1.289 1.29-1.289h20.109c.92 0 1.802-.24 2.578-.69v7.136c0 .71-.578 1.289-1.29 1.289z"/>
        <path d="M54.788 44h-5.576c-.67 0-1.212.448-1.212 1s.543 1 1.212 1h5.576c.67 0 1.212-.448 1.212-1s-.543-1-1.212-1z"/>
    </g>
</svg>
