<svg xmlns="http://www.w3.org/2000/svg" width="34" height="24" viewBox="0 0 34 24">
    <path fill="#2468EB" d="M32.675 2.06C31.447.597 29.182 0 24.855 0H9.144C4.72 0 2.416.635 1.193 2.193 0 3.713 0 5.95 0 9.048v5.904C0 20.953 1.414 24 9.146 24h15.708c3.753 0 5.832-.527 7.178-1.818 1.38-1.324 1.968-3.487 1.968-7.23V9.048c0-3.267-.092-5.518-1.325-6.988zM21.828 12.815l-7.133 3.74c-.16.083-.334.125-.508.125-.197 0-.394-.054-.568-.16-.329-.199-.529-.556-.529-.94V8.124c0-.384.2-.74.527-.94.328-.2.735-.213 1.075-.036l7.134 3.715c.363.189.59.565.591.975 0 .41-.227.786-.589.976z"/>
</svg>
